<svg width="36" height="36" viewBox="0 0 36 36" fill="none" xmlns="http://www.w3.org/2000/svg">
<rect width="36" height="36" rx="8" fill="white"/>
<path d="M15.7881 17.9972L21.3689 22.8898C21.5586 23.0561 21.6557 23.2651 21.6601 23.5169C21.6645 23.7687 21.5674 23.9816 21.3689 24.1556C21.1704 24.3296 20.9298 24.4167 20.647 24.4167C20.3642 24.4167 20.1235 24.3296 19.925 24.1556L13.7671 18.7571C13.6389 18.6447 13.5484 18.5261 13.4957 18.4014C13.443 18.2767 13.4167 18.1419 13.4167 17.9972C13.4167 17.8524 13.443 17.7177 13.4957 17.5929C13.5484 17.4682 13.6389 17.3496 13.7671 17.2372L19.925 11.8387C20.1147 11.6724 20.3532 11.5873 20.6404 11.5835C20.9276 11.5796 21.1704 11.6647 21.3689 11.8387C21.5674 12.0127 21.6667 12.2237 21.6667 12.4716C21.6667 12.7196 21.5674 12.9305 21.3689 13.1045L15.7881 17.9972Z" fill="black"/>
</svg>
