<svg width="36" height="36" viewBox="0 0 36 36" fill="none" xmlns="http://www.w3.org/2000/svg">
<rect x="0.5" y="0.5" width="35" height="35" rx="7.5" fill="white" stroke="#DCDCDC"/>
<path d="M11.5834 24.4167C11.3236 24.4167 11.1059 24.3288 10.9302 24.1531C10.7545 23.9774 10.6667 23.7597 10.6667 23.5C10.6667 23.2403 10.7545 23.0226 10.9302 22.8469C11.1059 22.6712 11.3236 22.5833 11.5834 22.5833H12.5V16.1667C12.5 14.8986 12.882 13.7719 13.6459 12.7865C14.4097 11.801 15.4028 11.1556 16.625 10.85V10.2083C16.625 9.82639 16.7587 9.50174 17.0261 9.23438C17.2934 8.96702 17.6181 8.83334 18 8.83334C18.382 8.83334 18.7066 8.96702 18.974 9.23438C19.2413 9.50174 19.375 9.82639 19.375 10.2083V10.85C20.5972 11.1556 21.5903 11.801 22.3542 12.7865C23.1181 13.7719 23.5 14.8986 23.5 16.1667V22.5833H24.4167C24.6764 22.5833 24.8941 22.6712 25.0698 22.8469C25.2455 23.0226 25.3334 23.2403 25.3334 23.5C25.3334 23.7597 25.2455 23.9774 25.0698 24.1531C24.8941 24.3288 24.6764 24.4167 24.4167 24.4167H11.5834ZM18 27.1667C17.4959 27.1667 17.0643 26.9872 16.7052 26.6281C16.3462 26.2691 16.1667 25.8375 16.1667 25.3333H19.8334C19.8334 25.8375 19.6538 26.2691 19.2948 26.6281C18.9358 26.9872 18.5042 27.1667 18 27.1667ZM14.3334 22.5833H21.6667V16.1667C21.6667 15.1583 21.3077 14.2951 20.5896 13.5771C19.8715 12.859 19.0084 12.5 18 12.5C16.9917 12.5 16.1285 12.859 15.4104 13.5771C14.6924 14.2951 14.3334 15.1583 14.3334 16.1667V22.5833Z" fill="black"/>
</svg>
