<svg width="36" height="36" viewBox="0 0 36 36" fill="none" xmlns="http://www.w3.org/2000/svg">
<rect width="36" height="36" rx="8" fill="white"/>
<path d="M17.9907 26.25C17.7841 26.25 17.5766 26.2117 17.3682 26.135C17.1597 26.0584 16.9763 25.9383 16.818 25.7748L15.4319 24.4737C13.721 22.8629 12.1935 21.2805 10.8494 19.7264C9.50535 18.1724 8.83331 16.5076 8.83331 14.732C8.83331 13.3179 9.29505 12.134 10.2185 11.1804C11.142 10.2268 12.2884 9.75 13.6579 9.75C14.436 9.75 15.2045 9.93523 15.9635 10.3057C16.7224 10.6762 17.4012 11.2778 18 12.1107C18.5987 11.2778 19.2776 10.6762 20.0365 10.3057C20.7955 9.93523 21.564 9.75 22.3421 9.75C23.7115 9.75 24.858 10.2268 25.7814 11.1804C26.7049 12.134 27.1666 13.3179 27.1666 14.732C27.1666 16.5268 26.4832 18.2101 25.1162 19.782C23.7492 21.3539 22.2252 22.9229 20.544 24.4891L19.1727 25.7748C19.0144 25.9383 18.8294 26.0584 18.6179 26.135C18.4063 26.2117 18.1973 26.25 17.9907 26.25ZM17.306 13.6245C16.784 12.8031 16.2344 12.2011 15.6573 11.8185C15.0802 11.4359 14.4137 11.2446 13.6579 11.2446C12.6929 11.2446 11.8889 11.5767 11.2456 12.241C10.6023 12.9053 10.2807 13.7356 10.2807 14.732C10.2807 15.5317 10.5302 16.3678 11.0294 17.2402C11.5285 18.1127 12.1551 18.9801 12.9091 19.8424C13.6631 20.7046 14.4799 21.5471 15.3594 22.3698C16.239 23.1924 17.0542 23.957 17.8051 24.6635C17.8608 24.7146 17.9257 24.7401 18 24.7401C18.0742 24.7401 18.1392 24.7146 18.1948 24.6635C18.9458 23.957 19.761 23.1924 20.6405 22.3698C21.5201 21.5471 22.3369 20.7046 23.0909 19.8424C23.8449 18.9801 24.4714 18.1127 24.9706 17.2402C25.4697 16.3678 25.7193 15.5317 25.7193 14.732C25.7193 13.7356 25.3977 12.9053 24.7544 12.241C24.1111 11.5767 23.307 11.2446 22.3421 11.2446C21.5862 11.2446 20.9198 11.4359 20.3427 11.8185C19.7656 12.2011 19.216 12.8031 18.694 13.6245C18.6123 13.7522 18.5096 13.848 18.3859 13.9119C18.2622 13.9758 18.1336 14.0077 18 14.0077C17.8664 14.0077 17.7377 13.9758 17.614 13.9119C17.4903 13.848 17.3876 13.7522 17.306 13.6245Z" fill="black"/>
</svg>
