<svg width="56" height="56" viewBox="0 0 56 56" fill="none" xmlns="http://www.w3.org/2000/svg">
<g filter="url(#filter0_d_7_126)">
<circle cx="28" cy="24" r="12" fill="white"/>
</g>
<path d="M27.9933 30C27.843 30 27.6921 29.9721 27.5405 29.9164C27.3889 29.8606 27.2555 29.7733 27.1404 29.6544L26.1323 28.7082C24.888 27.5366 23.7771 26.3858 22.7996 25.2556C21.8221 24.1254 21.3333 22.9146 21.3333 21.6233C21.3333 20.5948 21.6692 19.7338 22.3408 19.0403C23.0124 18.3468 23.8462 18 24.8421 18C25.408 18 25.9669 18.1347 26.5189 18.4041C27.0709 18.6736 27.5646 19.1112 28 19.7169C28.4355 19.1112 28.9292 18.6736 29.4811 18.4041C30.0331 18.1347 30.592 18 31.1579 18C32.1539 18 32.9876 18.3468 33.6593 19.0403C34.3309 19.7338 34.6667 20.5948 34.6667 21.6233C34.6667 22.9286 34.1696 24.1528 33.1754 25.296C32.1813 26.4392 31.0729 27.5803 29.8502 28.7193L28.8529 29.6544C28.7377 29.7733 28.6032 29.8606 28.4494 29.9164C28.2955 29.9721 28.1435 30 27.9933 30ZM27.4953 20.8178C27.1156 20.2204 26.7159 19.7826 26.2962 19.5044C25.8765 19.2261 25.3918 19.087 24.8421 19.087C24.1404 19.087 23.5556 19.3285 23.0877 19.8116C22.6199 20.2947 22.386 20.8986 22.386 21.6233C22.386 22.2049 22.5675 22.8129 22.9305 23.4474C23.2935 24.082 23.7492 24.7128 24.2975 25.3399C24.8459 25.967 25.4399 26.5797 26.0796 27.178C26.7193 27.7763 27.3122 28.3324 27.8583 28.8461C27.8988 28.8833 27.946 28.9019 28 28.9019C28.054 28.9019 28.1012 28.8833 28.1417 28.8461C28.6878 28.3324 29.2807 27.7763 29.9204 27.178C30.5601 26.5797 31.1541 25.967 31.7025 25.3399C32.2508 24.7128 32.7065 24.082 33.0695 23.4474C33.4326 22.8129 33.6141 22.2049 33.6141 21.6233C33.6141 20.8986 33.3801 20.2947 32.9123 19.8116C32.4445 19.3285 31.8597 19.087 31.1579 19.087C30.6082 19.087 30.1235 19.2261 29.7038 19.5044C29.2841 19.7826 28.8844 20.2204 28.5047 20.8178C28.4454 20.9107 28.3707 20.9804 28.2807 21.0268C28.1907 21.0733 28.0972 21.0965 28 21.0965C27.9029 21.0965 27.8093 21.0733 27.7193 21.0268C27.6293 20.9804 27.5547 20.9107 27.4953 20.8178Z" fill="black"/>
<defs>
<filter id="filter0_d_7_126" x="0" y="0" width="56" height="56" filterUnits="userSpaceOnUse" color-interpolation-filters="sRGB">
<feFlood flood-opacity="0" result="BackgroundImageFix"/>
<feColorMatrix in="SourceAlpha" type="matrix" values="0 0 0 0 0 0 0 0 0 0 0 0 0 0 0 0 0 0 127 0" result="hardAlpha"/>
<feOffset dy="4"/>
<feGaussianBlur stdDeviation="8"/>
<feComposite in2="hardAlpha" operator="out"/>
<feColorMatrix type="matrix" values="0 0 0 0 0 0 0 0 0 0 0 0 0 0 0 0 0 0 0.08 0"/>
<feBlend mode="normal" in2="BackgroundImageFix" result="effect1_dropShadow_7_126"/>
<feBlend mode="normal" in="SourceGraphic" in2="effect1_dropShadow_7_126" result="shape"/>
</filter>
</defs>
</svg>
